SplineFontDB: 3.0
FontName: dotmatrixnumberoneMedium
FullName: dotmatrixnumberone Medium
FamilyName: dotmatrixnumberone
Weight: Medium
Copyright: Public domain font.  Share and enjoy.
UComments: "2014-8-28: Created." 
Version: 001.000
ItalicAngle: 0
UnderlinePosition: -131.072
UnderlineWidth: 131.072
Ascent: 896
Descent: 128
LayerCount: 2
Layer: 0 0 "Back"  1
Layer: 1 0 "Fore"  0
XUID: [1021 63 1444778028 2747582]
OS2Version: 0
OS2_WeightWidthSlopeOnly: 0
OS2_UseTypoMetrics: 1
CreationTime: 1409278722
ModificationTime: 1409278923
OS2TypoAscent: 0
OS2TypoAOffset: 1
OS2TypoDescent: 0
OS2TypoDOffset: 1
OS2TypoLinegap: 0
OS2WinAscent: 0
OS2WinAOffset: 1
OS2WinDescent: 0
OS2WinDOffset: 1
HheadAscent: 0
HheadAOffset: 1
HheadDescent: 0
HheadDOffset: 1
OS2Vendor: 'PfEd'
MarkAttachClasses: 1
DEI: 91125
Encoding: UnicodeBmp
UnicodeInterp: none
NameList: Adobe Glyph List
DisplaySize: 16
AntiAlias: 1
FitToEm: 1
WinInfo: 16 16 7
BeginPrivate: 0
EndPrivate
BeginChars: 256 42

StartChar: percent
Encoding: 37 37 0
Width: 448
VWidth: 0
Flags: HW
LayerCount: 2
Back
Fore
SplineSet
256 0 m 1
 256 64 l 1
 256 128 l 1
 256 192 l 1
 256 256 l 1
 320 256 l 1
 384 256 l 1
 384 192 l 1
 384 128 l 1
 384 64 l 1
 384 0 l 1
 320 0 l 1
 256 0 l 1
64 128 m 1
 64 192 l 1
 64 256 l 1
 128 256 l 1
 128 192 l 1
 128 128 l 1
 64 128 l 1
128 256 m 1
 128 320 l 1
 128 384 l 1
 192 384 l 1
 192 320 l 1
 192 256 l 1
 128 256 l 1
192 384 m 1
 192 448 l 1
 192 512 l 1
 256 512 l 1
 256 448 l 1
 256 384 l 1
 192 384 l 1
256 512 m 1
 256 576 l 1
 256 640 l 1
 320 640 l 1
 320 576 l 1
 320 512 l 1
 256 512 l 1
64 640 m 1
 64 704 l 1
 64 768 l 1
 64 832 l 1
 64 896 l 1
 128 896 l 1
 192 896 l 1
 192 832 l 1
 192 768 l 1
 192 704 l 1
 192 640 l 1
 128 640 l 1
 64 640 l 1
320 640 m 1
 320 704 l 1
 320 768 l 1
 384 768 l 1
 384 704 l 1
 384 640 l 1
 320 640 l 1
EndSplineSet
EndChar

StartChar: hyphen
Encoding: 45 45 1
Width: 448
VWidth: 0
Flags: HW
LayerCount: 2
Back
Fore
SplineSet
64 384 m 1
 64 448 l 1
 64 512 l 1
 128 512 l 1
 192 512 l 1
 256 512 l 1
 320 512 l 1
 384 512 l 1
 384 448 l 1
 384 384 l 1
 320 384 l 1
 256 384 l 1
 192 384 l 1
 128 384 l 1
 64 384 l 1
EndSplineSet
EndChar

StartChar: period
Encoding: 46 46 2
Width: 448
VWidth: 0
Flags: HW
LayerCount: 2
Back
Fore
SplineSet
192 0 m 1
 192 64 l 1
 192 128 l 1
 256 128 l 1
 256 64 l 1
 256 0 l 1
 192 0 l 1
EndSplineSet
EndChar

StartChar: slash
Encoding: 47 47 3
Width: 448
VWidth: 0
Flags: HW
LayerCount: 2
Back
Fore
SplineSet
64 128 m 1
 64 192 l 1
 64 256 l 1
 128 256 l 1
 128 192 l 1
 128 128 l 1
 64 128 l 1
128 256 m 1
 128 320 l 1
 128 384 l 1
 192 384 l 1
 192 320 l 1
 192 256 l 1
 128 256 l 1
192 384 m 1
 192 448 l 1
 192 512 l 1
 256 512 l 1
 256 448 l 1
 256 384 l 1
 192 384 l 1
256 512 m 1
 256 576 l 1
 256 640 l 1
 320 640 l 1
 320 576 l 1
 320 512 l 1
 256 512 l 1
320 640 m 1
 320 704 l 1
 320 768 l 1
 384 768 l 1
 384 704 l 1
 384 640 l 1
 320 640 l 1
EndSplineSet
EndChar

StartChar: zero
Encoding: 48 48 4
Width: 448
VWidth: 0
Flags: HW
LayerCount: 2
Back
Fore
SplineSet
128 0 m 1
 128 64 l 1
 128 128 l 1
 192 128 l 1
 256 128 l 1
 320 128 l 1
 320 64 l 1
 320 0 l 1
 256 0 l 1
 192 0 l 1
 128 0 l 1
64 128 m 1
 64 192 l 1
 64 256 l 1
 64 320 l 1
 64 384 l 1
 64 448 l 1
 64 512 l 1
 64 576 l 1
 64 640 l 1
 64 704 l 1
 64 768 l 1
 128 768 l 1
 128 704 l 1
 128 640 l 1
 128 576 l 1
 128 512 l 1
 128 448 l 1
 128 384 l 1
 192 384 l 1
 192 320 l 1
 192 256 l 1
 128 256 l 1
 128 192 l 1
 128 128 l 1
 64 128 l 1
320 128 m 1
 320 192 l 1
 320 256 l 1
 320 320 l 1
 320 384 l 1
 320 448 l 1
 320 512 l 1
 256 512 l 1
 256 576 l 1
 256 640 l 1
 320 640 l 1
 320 704 l 1
 320 768 l 1
 384 768 l 1
 384 704 l 1
 384 640 l 1
 384 576 l 1
 384 512 l 1
 384 448 l 1
 384 384 l 1
 384 320 l 1
 384 256 l 1
 384 192 l 1
 384 128 l 1
 320 128 l 1
192 384 m 1
 192 448 l 1
 192 512 l 1
 256 512 l 1
 256 448 l 1
 256 384 l 1
 192 384 l 1
128 768 m 1
 128 832 l 1
 128 896 l 1
 192 896 l 1
 256 896 l 1
 320 896 l 1
 320 832 l 1
 320 768 l 1
 256 768 l 1
 192 768 l 1
 128 768 l 1
EndSplineSet
EndChar

StartChar: one
Encoding: 49 49 5
Width: 448
VWidth: 0
Flags: HW
LayerCount: 2
Back
Fore
SplineSet
128 0 m 1
 128 64 l 1
 128 128 l 1
 192 128 l 1
 192 192 l 1
 192 256 l 1
 192 320 l 1
 192 384 l 1
 192 448 l 1
 192 512 l 1
 192 576 l 1
 192 640 l 1
 128 640 l 1
 128 704 l 1
 128 768 l 1
 192 768 l 1
 192 832 l 1
 192 896 l 1
 256 896 l 1
 256 832 l 1
 256 768 l 1
 256 704 l 1
 256 640 l 1
 256 576 l 1
 256 512 l 1
 256 448 l 1
 256 384 l 1
 256 320 l 1
 256 256 l 1
 256 192 l 1
 256 128 l 1
 320 128 l 1
 320 64 l 1
 320 0 l 1
 256 0 l 1
 192 0 l 1
 128 0 l 1
EndSplineSet
EndChar

StartChar: two
Encoding: 50 50 6
Width: 448
VWidth: 0
Flags: HW
LayerCount: 2
Back
Fore
SplineSet
64 0 m 1
 64 64 l 1
 64 128 l 1
 64 192 l 1
 64 256 l 1
 128 256 l 1
 128 192 l 1
 128 128 l 1
 192 128 l 1
 256 128 l 1
 320 128 l 1
 384 128 l 1
 384 64 l 1
 384 0 l 1
 320 0 l 1
 256 0 l 1
 192 0 l 1
 128 0 l 1
 64 0 l 1
128 256 m 1
 128 320 l 1
 128 384 l 1
 192 384 l 1
 192 320 l 1
 192 256 l 1
 128 256 l 1
192 384 m 1
 192 448 l 1
 192 512 l 1
 256 512 l 1
 320 512 l 1
 320 448 l 1
 320 384 l 1
 256 384 l 1
 192 384 l 1
320 512 m 1
 320 576 l 1
 320 640 l 1
 320 704 l 1
 320 768 l 1
 384 768 l 1
 384 704 l 1
 384 640 l 1
 384 576 l 1
 384 512 l 1
 320 512 l 1
64 640 m 1
 64 704 l 1
 64 768 l 1
 128 768 l 1
 128 704 l 1
 128 640 l 1
 64 640 l 1
128 768 m 1
 128 832 l 1
 128 896 l 1
 192 896 l 1
 256 896 l 1
 320 896 l 1
 320 832 l 1
 320 768 l 1
 256 768 l 1
 192 768 l 1
 128 768 l 1
EndSplineSet
EndChar

StartChar: three
Encoding: 51 51 7
Width: 448
VWidth: 0
Flags: HW
LayerCount: 2
Back
Fore
SplineSet
128 0 m 1
 128 64 l 1
 128 128 l 1
 192 128 l 1
 256 128 l 1
 320 128 l 1
 320 64 l 1
 320 0 l 1
 256 0 l 1
 192 0 l 1
 128 0 l 1
64 128 m 1
 64 192 l 1
 64 256 l 1
 128 256 l 1
 128 192 l 1
 128 128 l 1
 64 128 l 1
320 128 m 1
 320 192 l 1
 320 256 l 1
 320 320 l 1
 320 384 l 1
 384 384 l 1
 384 320 l 1
 384 256 l 1
 384 192 l 1
 384 128 l 1
 320 128 l 1
192 384 m 1
 192 448 l 1
 192 512 l 1
 256 512 l 1
 256 576 l 1
 256 640 l 1
 320 640 l 1
 320 576 l 1
 320 512 l 1
 320 448 l 1
 320 384 l 1
 256 384 l 1
 192 384 l 1
320 640 m 1
 320 704 l 1
 320 768 l 1
 256 768 l 1
 192 768 l 1
 128 768 l 1
 64 768 l 1
 64 832 l 1
 64 896 l 1
 128 896 l 1
 192 896 l 1
 256 896 l 1
 320 896 l 1
 384 896 l 1
 384 832 l 1
 384 768 l 1
 384 704 l 1
 384 640 l 1
 320 640 l 1
EndSplineSet
EndChar

StartChar: four
Encoding: 52 52 8
Width: 448
VWidth: 0
Flags: HW
LayerCount: 2
Back
Fore
SplineSet
256 0 m 1
 256 64 l 1
 256 128 l 1
 256 192 l 1
 256 256 l 1
 192 256 l 1
 128 256 l 1
 64 256 l 1
 64 320 l 1
 64 384 l 1
 64 448 l 1
 64 512 l 1
 128 512 l 1
 128 448 l 1
 128 384 l 1
 192 384 l 1
 256 384 l 1
 256 448 l 1
 256 512 l 1
 256 576 l 1
 256 640 l 1
 192 640 l 1
 192 704 l 1
 192 768 l 1
 256 768 l 1
 256 832 l 1
 256 896 l 1
 320 896 l 1
 320 832 l 1
 320 768 l 1
 320 704 l 1
 320 640 l 1
 320 576 l 1
 320 512 l 1
 320 448 l 1
 320 384 l 1
 384 384 l 1
 384 320 l 1
 384 256 l 1
 320 256 l 1
 320 192 l 1
 320 128 l 1
 320 64 l 1
 320 0 l 1
 256 0 l 1
128 512 m 1
 128 576 l 1
 128 640 l 1
 192 640 l 1
 192 576 l 1
 192 512 l 1
 128 512 l 1
EndSplineSet
EndChar

StartChar: five
Encoding: 53 53 9
Width: 448
VWidth: 0
Flags: HW
LayerCount: 2
Back
Fore
SplineSet
128 0 m 1
 128 64 l 1
 128 128 l 1
 192 128 l 1
 256 128 l 1
 320 128 l 1
 320 64 l 1
 320 0 l 1
 256 0 l 1
 192 0 l 1
 128 0 l 1
64 128 m 1
 64 192 l 1
 64 256 l 1
 128 256 l 1
 128 192 l 1
 128 128 l 1
 64 128 l 1
320 128 m 1
 320 192 l 1
 320 256 l 1
 320 320 l 1
 320 384 l 1
 320 448 l 1
 320 512 l 1
 384 512 l 1
 384 448 l 1
 384 384 l 1
 384 320 l 1
 384 256 l 1
 384 192 l 1
 384 128 l 1
 320 128 l 1
64 512 m 1
 64 576 l 1
 64 640 l 1
 64 704 l 1
 64 768 l 1
 64 832 l 1
 64 896 l 1
 128 896 l 1
 192 896 l 1
 256 896 l 1
 320 896 l 1
 384 896 l 1
 384 832 l 1
 384 768 l 1
 320 768 l 1
 256 768 l 1
 192 768 l 1
 128 768 l 1
 128 704 l 1
 128 640 l 1
 192 640 l 1
 256 640 l 1
 320 640 l 1
 320 576 l 1
 320 512 l 1
 256 512 l 1
 192 512 l 1
 128 512 l 1
 64 512 l 1
EndSplineSet
EndChar

StartChar: six
Encoding: 54 54 10
Width: 448
VWidth: 0
Flags: HW
LayerCount: 2
Back
Fore
SplineSet
128 0 m 1
 128 64 l 1
 128 128 l 1
 192 128 l 1
 256 128 l 1
 320 128 l 1
 320 64 l 1
 320 0 l 1
 256 0 l 1
 192 0 l 1
 128 0 l 1
64 128 m 1
 64 192 l 1
 64 256 l 1
 64 320 l 1
 64 384 l 1
 64 448 l 1
 64 512 l 1
 64 576 l 1
 64 640 l 1
 128 640 l 1
 128 576 l 1
 128 512 l 1
 192 512 l 1
 256 512 l 1
 320 512 l 1
 320 448 l 1
 320 384 l 1
 256 384 l 1
 192 384 l 1
 128 384 l 1
 128 320 l 1
 128 256 l 1
 128 192 l 1
 128 128 l 1
 64 128 l 1
320 128 m 1
 320 192 l 1
 320 256 l 1
 320 320 l 1
 320 384 l 1
 384 384 l 1
 384 320 l 1
 384 256 l 1
 384 192 l 1
 384 128 l 1
 320 128 l 1
128 640 m 1
 128 704 l 1
 128 768 l 1
 192 768 l 1
 192 704 l 1
 192 640 l 1
 128 640 l 1
192 768 m 1
 192 832 l 1
 192 896 l 1
 256 896 l 1
 320 896 l 1
 384 896 l 1
 384 832 l 1
 384 768 l 1
 320 768 l 1
 256 768 l 1
 192 768 l 1
EndSplineSet
EndChar

StartChar: seven
Encoding: 55 55 11
Width: 448
VWidth: 0
Flags: HW
LayerCount: 2
Back
Fore
SplineSet
128 0 m 1
 128 64 l 1
 128 128 l 1
 128 192 l 1
 128 256 l 1
 128 320 l 1
 128 384 l 1
 192 384 l 1
 192 320 l 1
 192 256 l 1
 192 192 l 1
 192 128 l 1
 192 64 l 1
 192 0 l 1
 128 0 l 1
192 384 m 1
 192 448 l 1
 192 512 l 1
 256 512 l 1
 256 448 l 1
 256 384 l 1
 192 384 l 1
256 512 m 1
 256 576 l 1
 256 640 l 1
 320 640 l 1
 320 576 l 1
 320 512 l 1
 256 512 l 1
320 640 m 1
 320 704 l 1
 320 768 l 1
 256 768 l 1
 192 768 l 1
 128 768 l 1
 64 768 l 1
 64 832 l 1
 64 896 l 1
 128 896 l 1
 192 896 l 1
 256 896 l 1
 320 896 l 1
 384 896 l 1
 384 832 l 1
 384 768 l 1
 384 704 l 1
 384 640 l 1
 320 640 l 1
EndSplineSet
EndChar

StartChar: eight
Encoding: 56 56 12
Width: 448
VWidth: 0
Flags: HW
LayerCount: 2
Back
Fore
SplineSet
128 0 m 1
 128 64 l 1
 128 128 l 1
 192 128 l 1
 256 128 l 1
 320 128 l 1
 320 64 l 1
 320 0 l 1
 256 0 l 1
 192 0 l 1
 128 0 l 1
64 128 m 1
 64 192 l 1
 64 256 l 1
 64 320 l 1
 64 384 l 1
 128 384 l 1
 128 320 l 1
 128 256 l 1
 128 192 l 1
 128 128 l 1
 64 128 l 1
320 128 m 1
 320 192 l 1
 320 256 l 1
 320 320 l 1
 320 384 l 1
 384 384 l 1
 384 320 l 1
 384 256 l 1
 384 192 l 1
 384 128 l 1
 320 128 l 1
128 384 m 1
 128 448 l 1
 128 512 l 1
 192 512 l 1
 256 512 l 1
 320 512 l 1
 320 448 l 1
 320 384 l 1
 256 384 l 1
 192 384 l 1
 128 384 l 1
64 512 m 1
 64 576 l 1
 64 640 l 1
 64 704 l 1
 64 768 l 1
 128 768 l 1
 128 704 l 1
 128 640 l 1
 128 576 l 1
 128 512 l 1
 64 512 l 1
320 512 m 1
 320 576 l 1
 320 640 l 1
 320 704 l 1
 320 768 l 1
 384 768 l 1
 384 704 l 1
 384 640 l 1
 384 576 l 1
 384 512 l 1
 320 512 l 1
128 768 m 1
 128 832 l 1
 128 896 l 1
 192 896 l 1
 256 896 l 1
 320 896 l 1
 320 832 l 1
 320 768 l 1
 256 768 l 1
 192 768 l 1
 128 768 l 1
EndSplineSet
EndChar

StartChar: nine
Encoding: 57 57 13
Width: 448
VWidth: 0
Flags: HW
LayerCount: 2
Back
Fore
SplineSet
64 0 m 1
 64 64 l 1
 64 128 l 1
 128 128 l 1
 192 128 l 1
 256 128 l 1
 256 64 l 1
 256 0 l 1
 192 0 l 1
 128 0 l 1
 64 0 l 1
256 128 m 1
 256 192 l 1
 256 256 l 1
 320 256 l 1
 320 192 l 1
 320 128 l 1
 256 128 l 1
320 256 m 1
 320 320 l 1
 320 384 l 1
 256 384 l 1
 192 384 l 1
 128 384 l 1
 128 448 l 1
 128 512 l 1
 192 512 l 1
 256 512 l 1
 320 512 l 1
 320 576 l 1
 320 640 l 1
 320 704 l 1
 320 768 l 1
 384 768 l 1
 384 704 l 1
 384 640 l 1
 384 576 l 1
 384 512 l 1
 384 448 l 1
 384 384 l 1
 384 320 l 1
 384 256 l 1
 320 256 l 1
64 512 m 1
 64 576 l 1
 64 640 l 1
 64 704 l 1
 64 768 l 1
 128 768 l 1
 128 704 l 1
 128 640 l 1
 128 576 l 1
 128 512 l 1
 64 512 l 1
128 768 m 1
 128 832 l 1
 128 896 l 1
 192 896 l 1
 256 896 l 1
 320 896 l 1
 320 832 l 1
 320 768 l 1
 256 768 l 1
 192 768 l 1
 128 768 l 1
EndSplineSet
EndChar

StartChar: colon
Encoding: 58 58 14
Width: 448
VWidth: 0
Flags: HW
LayerCount: 2
Back
Fore
SplineSet
192 256 m 1
 192 320 l 1
 192 384 l 1
 256 384 l 1
 256 320 l 1
 256 256 l 1
 192 256 l 1
192 512 m 1
 192 576 l 1
 192 640 l 1
 256 640 l 1
 256 576 l 1
 256 512 l 1
 192 512 l 1
EndSplineSet
EndChar

StartChar: A
Encoding: 65 65 15
Width: 448
VWidth: 0
Flags: HW
LayerCount: 2
Back
Fore
SplineSet
64 0 m 1
 64 64 l 1
 64 128 l 1
 64 192 l 1
 64 256 l 1
 64 320 l 1
 64 384 l 1
 64 448 l 1
 64 512 l 1
 64 576 l 1
 64 640 l 1
 128 640 l 1
 128 576 l 1
 128 512 l 1
 128 448 l 1
 128 384 l 1
 192 384 l 1
 256 384 l 1
 320 384 l 1
 320 448 l 1
 320 512 l 1
 320 576 l 1
 320 640 l 1
 384 640 l 1
 384 576 l 1
 384 512 l 1
 384 448 l 1
 384 384 l 1
 384 320 l 1
 384 256 l 1
 384 192 l 1
 384 128 l 1
 384 64 l 1
 384 0 l 1
 320 0 l 1
 320 64 l 1
 320 128 l 1
 320 192 l 1
 320 256 l 1
 256 256 l 1
 192 256 l 1
 128 256 l 1
 128 192 l 1
 128 128 l 1
 128 64 l 1
 128 0 l 1
 64 0 l 1
128 640 m 1
 128 704 l 1
 128 768 l 1
 192 768 l 1
 192 704 l 1
 192 640 l 1
 128 640 l 1
256 640 m 1
 256 704 l 1
 256 768 l 1
 320 768 l 1
 320 704 l 1
 320 640 l 1
 256 640 l 1
192 768 m 1
 192 832 l 1
 192 896 l 1
 256 896 l 1
 256 832 l 1
 256 768 l 1
 192 768 l 1
EndSplineSet
EndChar

StartChar: B
Encoding: 66 66 16
Width: 448
VWidth: 0
Flags: HW
LayerCount: 2
Back
Fore
SplineSet
64 0 m 1
 64 64 l 1
 64 128 l 1
 64 192 l 1
 64 256 l 1
 64 320 l 1
 64 384 l 1
 64 448 l 1
 64 512 l 1
 64 576 l 1
 64 640 l 1
 64 704 l 1
 64 768 l 1
 64 832 l 1
 64 896 l 1
 128 896 l 1
 192 896 l 1
 256 896 l 1
 320 896 l 1
 320 832 l 1
 320 768 l 1
 256 768 l 1
 192 768 l 1
 128 768 l 1
 128 704 l 1
 128 640 l 1
 128 576 l 1
 128 512 l 1
 192 512 l 1
 256 512 l 1
 320 512 l 1
 320 448 l 1
 320 384 l 1
 256 384 l 1
 192 384 l 1
 128 384 l 1
 128 320 l 1
 128 256 l 1
 128 192 l 1
 128 128 l 1
 192 128 l 1
 256 128 l 1
 320 128 l 1
 320 64 l 1
 320 0 l 1
 256 0 l 1
 192 0 l 1
 128 0 l 1
 64 0 l 1
320 128 m 1
 320 192 l 1
 320 256 l 1
 320 320 l 1
 320 384 l 1
 384 384 l 1
 384 320 l 1
 384 256 l 1
 384 192 l 1
 384 128 l 1
 320 128 l 1
320 512 m 1
 320 576 l 1
 320 640 l 1
 320 704 l 1
 320 768 l 1
 384 768 l 1
 384 704 l 1
 384 640 l 1
 384 576 l 1
 384 512 l 1
 320 512 l 1
EndSplineSet
EndChar

StartChar: C
Encoding: 67 67 17
Width: 448
VWidth: 0
Flags: HW
LayerCount: 2
Back
Fore
SplineSet
128 0 m 1
 128 64 l 1
 128 128 l 1
 192 128 l 1
 256 128 l 1
 320 128 l 1
 320 64 l 1
 320 0 l 1
 256 0 l 1
 192 0 l 1
 128 0 l 1
64 128 m 1
 64 192 l 1
 64 256 l 1
 64 320 l 1
 64 384 l 1
 64 448 l 1
 64 512 l 1
 64 576 l 1
 64 640 l 1
 64 704 l 1
 64 768 l 1
 128 768 l 1
 128 704 l 1
 128 640 l 1
 128 576 l 1
 128 512 l 1
 128 448 l 1
 128 384 l 1
 128 320 l 1
 128 256 l 1
 128 192 l 1
 128 128 l 1
 64 128 l 1
320 128 m 1
 320 192 l 1
 320 256 l 1
 384 256 l 1
 384 192 l 1
 384 128 l 1
 320 128 l 1
320 640 m 1
 320 704 l 1
 320 768 l 1
 384 768 l 1
 384 704 l 1
 384 640 l 1
 320 640 l 1
128 768 m 1
 128 832 l 1
 128 896 l 1
 192 896 l 1
 256 896 l 1
 320 896 l 1
 320 832 l 1
 320 768 l 1
 256 768 l 1
 192 768 l 1
 128 768 l 1
EndSplineSet
EndChar

StartChar: D
Encoding: 68 68 18
Width: 448
VWidth: 0
Flags: HW
LayerCount: 2
Back
Fore
SplineSet
64 0 m 1
 64 64 l 1
 64 128 l 1
 64 192 l 1
 64 256 l 1
 64 320 l 1
 64 384 l 1
 64 448 l 1
 64 512 l 1
 64 576 l 1
 64 640 l 1
 64 704 l 1
 64 768 l 1
 64 832 l 1
 64 896 l 1
 128 896 l 1
 192 896 l 1
 256 896 l 1
 320 896 l 1
 320 832 l 1
 320 768 l 1
 256 768 l 1
 192 768 l 1
 128 768 l 1
 128 704 l 1
 128 640 l 1
 128 576 l 1
 128 512 l 1
 128 448 l 1
 128 384 l 1
 128 320 l 1
 128 256 l 1
 128 192 l 1
 128 128 l 1
 192 128 l 1
 256 128 l 1
 320 128 l 1
 320 64 l 1
 320 0 l 1
 256 0 l 1
 192 0 l 1
 128 0 l 1
 64 0 l 1
320 128 m 1
 320 192 l 1
 320 256 l 1
 320 320 l 1
 320 384 l 1
 320 448 l 1
 320 512 l 1
 320 576 l 1
 320 640 l 1
 320 704 l 1
 320 768 l 1
 384 768 l 1
 384 704 l 1
 384 640 l 1
 384 576 l 1
 384 512 l 1
 384 448 l 1
 384 384 l 1
 384 320 l 1
 384 256 l 1
 384 192 l 1
 384 128 l 1
 320 128 l 1
EndSplineSet
EndChar

StartChar: E
Encoding: 69 69 19
Width: 448
VWidth: 0
Flags: HW
LayerCount: 2
Back
Fore
SplineSet
64 0 m 1
 64 64 l 1
 64 128 l 1
 64 192 l 1
 64 256 l 1
 64 320 l 1
 64 384 l 1
 64 448 l 1
 64 512 l 1
 64 576 l 1
 64 640 l 1
 64 704 l 1
 64 768 l 1
 64 832 l 1
 64 896 l 1
 128 896 l 1
 192 896 l 1
 256 896 l 1
 320 896 l 1
 384 896 l 1
 384 832 l 1
 384 768 l 1
 320 768 l 1
 256 768 l 1
 192 768 l 1
 128 768 l 1
 128 704 l 1
 128 640 l 1
 128 576 l 1
 128 512 l 1
 192 512 l 1
 256 512 l 1
 320 512 l 1
 320 448 l 1
 320 384 l 1
 256 384 l 1
 192 384 l 1
 128 384 l 1
 128 320 l 1
 128 256 l 1
 128 192 l 1
 128 128 l 1
 192 128 l 1
 256 128 l 1
 320 128 l 1
 384 128 l 1
 384 64 l 1
 384 0 l 1
 320 0 l 1
 256 0 l 1
 192 0 l 1
 128 0 l 1
 64 0 l 1
EndSplineSet
EndChar

StartChar: F
Encoding: 70 70 20
Width: 448
VWidth: 0
Flags: HW
LayerCount: 2
Back
Fore
SplineSet
64 0 m 1
 64 64 l 1
 64 128 l 1
 64 192 l 1
 64 256 l 1
 64 320 l 1
 64 384 l 1
 64 448 l 1
 64 512 l 1
 64 576 l 1
 64 640 l 1
 64 704 l 1
 64 768 l 1
 64 832 l 1
 64 896 l 1
 128 896 l 1
 192 896 l 1
 256 896 l 1
 320 896 l 1
 384 896 l 1
 384 832 l 1
 384 768 l 1
 320 768 l 1
 256 768 l 1
 192 768 l 1
 128 768 l 1
 128 704 l 1
 128 640 l 1
 128 576 l 1
 128 512 l 1
 192 512 l 1
 256 512 l 1
 320 512 l 1
 320 448 l 1
 320 384 l 1
 256 384 l 1
 192 384 l 1
 128 384 l 1
 128 320 l 1
 128 256 l 1
 128 192 l 1
 128 128 l 1
 128 64 l 1
 128 0 l 1
 64 0 l 1
EndSplineSet
EndChar

StartChar: G
Encoding: 71 71 21
Width: 448
VWidth: 0
Flags: HW
LayerCount: 2
Back
Fore
SplineSet
128 0 m 1
 128 64 l 1
 128 128 l 1
 192 128 l 1
 256 128 l 1
 320 128 l 1
 320 192 l 1
 320 256 l 1
 256 256 l 1
 256 320 l 1
 256 384 l 1
 320 384 l 1
 384 384 l 1
 384 320 l 1
 384 256 l 1
 384 192 l 1
 384 128 l 1
 384 64 l 1
 384 0 l 1
 320 0 l 1
 256 0 l 1
 192 0 l 1
 128 0 l 1
64 128 m 1
 64 192 l 1
 64 256 l 1
 64 320 l 1
 64 384 l 1
 64 448 l 1
 64 512 l 1
 64 576 l 1
 64 640 l 1
 64 704 l 1
 64 768 l 1
 128 768 l 1
 128 704 l 1
 128 640 l 1
 128 576 l 1
 128 512 l 1
 128 448 l 1
 128 384 l 1
 128 320 l 1
 128 256 l 1
 128 192 l 1
 128 128 l 1
 64 128 l 1
320 640 m 1
 320 704 l 1
 320 768 l 1
 384 768 l 1
 384 704 l 1
 384 640 l 1
 320 640 l 1
128 768 m 1
 128 832 l 1
 128 896 l 1
 192 896 l 1
 256 896 l 1
 320 896 l 1
 320 832 l 1
 320 768 l 1
 256 768 l 1
 192 768 l 1
 128 768 l 1
EndSplineSet
EndChar

StartChar: H
Encoding: 72 72 22
Width: 448
VWidth: 0
Flags: HW
LayerCount: 2
Back
Fore
SplineSet
64 0 m 1
 64 64 l 1
 64 128 l 1
 64 192 l 1
 64 256 l 1
 64 320 l 1
 64 384 l 1
 64 448 l 1
 64 512 l 1
 64 576 l 1
 64 640 l 1
 64 704 l 1
 64 768 l 1
 64 832 l 1
 64 896 l 1
 128 896 l 1
 128 832 l 1
 128 768 l 1
 128 704 l 1
 128 640 l 1
 128 576 l 1
 128 512 l 1
 192 512 l 1
 256 512 l 1
 320 512 l 1
 320 576 l 1
 320 640 l 1
 320 704 l 1
 320 768 l 1
 320 832 l 1
 320 896 l 1
 384 896 l 1
 384 832 l 1
 384 768 l 1
 384 704 l 1
 384 640 l 1
 384 576 l 1
 384 512 l 1
 384 448 l 1
 384 384 l 1
 384 320 l 1
 384 256 l 1
 384 192 l 1
 384 128 l 1
 384 64 l 1
 384 0 l 1
 320 0 l 1
 320 64 l 1
 320 128 l 1
 320 192 l 1
 320 256 l 1
 320 320 l 1
 320 384 l 1
 256 384 l 1
 192 384 l 1
 128 384 l 1
 128 320 l 1
 128 256 l 1
 128 192 l 1
 128 128 l 1
 128 64 l 1
 128 0 l 1
 64 0 l 1
EndSplineSet
EndChar

StartChar: I
Encoding: 73 73 23
Width: 448
VWidth: 0
Flags: HW
LayerCount: 2
Back
Fore
SplineSet
128 0 m 1
 128 64 l 1
 128 128 l 1
 192 128 l 1
 192 192 l 1
 192 256 l 1
 192 320 l 1
 192 384 l 1
 192 448 l 1
 192 512 l 1
 192 576 l 1
 192 640 l 1
 192 704 l 1
 192 768 l 1
 128 768 l 1
 128 832 l 1
 128 896 l 1
 192 896 l 1
 256 896 l 1
 320 896 l 1
 320 832 l 1
 320 768 l 1
 256 768 l 1
 256 704 l 1
 256 640 l 1
 256 576 l 1
 256 512 l 1
 256 448 l 1
 256 384 l 1
 256 320 l 1
 256 256 l 1
 256 192 l 1
 256 128 l 1
 320 128 l 1
 320 64 l 1
 320 0 l 1
 256 0 l 1
 192 0 l 1
 128 0 l 1
EndSplineSet
EndChar

StartChar: J
Encoding: 74 74 24
Width: 448
VWidth: 0
Flags: HW
LayerCount: 2
Back
Fore
SplineSet
128 0 m 1
 128 64 l 1
 128 128 l 1
 192 128 l 1
 256 128 l 1
 320 128 l 1
 320 64 l 1
 320 0 l 1
 256 0 l 1
 192 0 l 1
 128 0 l 1
64 128 m 1
 64 192 l 1
 64 256 l 1
 128 256 l 1
 128 192 l 1
 128 128 l 1
 64 128 l 1
320 128 m 1
 320 192 l 1
 320 256 l 1
 320 320 l 1
 320 384 l 1
 320 448 l 1
 320 512 l 1
 320 576 l 1
 320 640 l 1
 320 704 l 1
 320 768 l 1
 320 832 l 1
 320 896 l 1
 384 896 l 1
 384 832 l 1
 384 768 l 1
 384 704 l 1
 384 640 l 1
 384 576 l 1
 384 512 l 1
 384 448 l 1
 384 384 l 1
 384 320 l 1
 384 256 l 1
 384 192 l 1
 384 128 l 1
 320 128 l 1
EndSplineSet
EndChar

StartChar: K
Encoding: 75 75 25
Width: 448
VWidth: 0
Flags: HW
LayerCount: 2
Back
Fore
SplineSet
64 0 m 1
 64 64 l 1
 64 128 l 1
 64 192 l 1
 64 256 l 1
 64 320 l 1
 64 384 l 1
 64 448 l 1
 64 512 l 1
 64 576 l 1
 64 640 l 1
 64 704 l 1
 64 768 l 1
 64 832 l 1
 64 896 l 1
 128 896 l 1
 128 832 l 1
 128 768 l 1
 128 704 l 1
 128 640 l 1
 128 576 l 1
 128 512 l 1
 192 512 l 1
 192 448 l 1
 192 384 l 1
 128 384 l 1
 128 320 l 1
 128 256 l 1
 128 192 l 1
 128 128 l 1
 128 64 l 1
 128 0 l 1
 64 0 l 1
320 0 m 1
 320 64 l 1
 320 128 l 1
 384 128 l 1
 384 64 l 1
 384 0 l 1
 320 0 l 1
256 128 m 1
 256 192 l 1
 256 256 l 1
 320 256 l 1
 320 192 l 1
 320 128 l 1
 256 128 l 1
192 256 m 1
 192 320 l 1
 192 384 l 1
 256 384 l 1
 256 320 l 1
 256 256 l 1
 192 256 l 1
192 512 m 1
 192 576 l 1
 192 640 l 1
 256 640 l 1
 256 576 l 1
 256 512 l 1
 192 512 l 1
256 640 m 1
 256 704 l 1
 256 768 l 1
 320 768 l 1
 320 704 l 1
 320 640 l 1
 256 640 l 1
320 768 m 1
 320 832 l 1
 320 896 l 1
 384 896 l 1
 384 832 l 1
 384 768 l 1
 320 768 l 1
EndSplineSet
EndChar

StartChar: L
Encoding: 76 76 26
Width: 448
VWidth: 0
Flags: HW
LayerCount: 2
Back
Fore
SplineSet
64 0 m 1
 64 64 l 1
 64 128 l 1
 64 192 l 1
 64 256 l 1
 64 320 l 1
 64 384 l 1
 64 448 l 1
 64 512 l 1
 64 576 l 1
 64 640 l 1
 64 704 l 1
 64 768 l 1
 64 832 l 1
 64 896 l 1
 128 896 l 1
 128 832 l 1
 128 768 l 1
 128 704 l 1
 128 640 l 1
 128 576 l 1
 128 512 l 1
 128 448 l 1
 128 384 l 1
 128 320 l 1
 128 256 l 1
 128 192 l 1
 128 128 l 1
 192 128 l 1
 256 128 l 1
 320 128 l 1
 384 128 l 1
 384 64 l 1
 384 0 l 1
 320 0 l 1
 256 0 l 1
 192 0 l 1
 128 0 l 1
 64 0 l 1
EndSplineSet
EndChar

StartChar: M
Encoding: 77 77 27
Width: 448
VWidth: 0
Flags: HW
LayerCount: 2
Back
Fore
SplineSet
64 0 m 1
 64 64 l 1
 64 128 l 1
 64 192 l 1
 64 256 l 1
 64 320 l 1
 64 384 l 1
 64 448 l 1
 64 512 l 1
 64 576 l 1
 64 640 l 1
 64 704 l 1
 64 768 l 1
 64 832 l 1
 64 896 l 1
 128 896 l 1
 128 832 l 1
 128 768 l 1
 192 768 l 1
 192 704 l 1
 192 640 l 1
 128 640 l 1
 128 576 l 1
 128 512 l 1
 128 448 l 1
 128 384 l 1
 128 320 l 1
 128 256 l 1
 128 192 l 1
 128 128 l 1
 128 64 l 1
 128 0 l 1
 64 0 l 1
320 0 m 1
 320 64 l 1
 320 128 l 1
 320 192 l 1
 320 256 l 1
 320 320 l 1
 320 384 l 1
 320 448 l 1
 320 512 l 1
 320 576 l 1
 320 640 l 1
 256 640 l 1
 256 704 l 1
 256 768 l 1
 320 768 l 1
 320 832 l 1
 320 896 l 1
 384 896 l 1
 384 832 l 1
 384 768 l 1
 384 704 l 1
 384 640 l 1
 384 576 l 1
 384 512 l 1
 384 448 l 1
 384 384 l 1
 384 320 l 1
 384 256 l 1
 384 192 l 1
 384 128 l 1
 384 64 l 1
 384 0 l 1
 320 0 l 1
192 384 m 1
 192 448 l 1
 192 512 l 1
 192 576 l 1
 192 640 l 1
 256 640 l 1
 256 576 l 1
 256 512 l 1
 256 448 l 1
 256 384 l 1
 192 384 l 1
EndSplineSet
EndChar

StartChar: N
Encoding: 78 78 28
Width: 448
VWidth: 0
Flags: HW
LayerCount: 2
Back
Fore
SplineSet
64 0 m 1
 64 64 l 1
 64 128 l 1
 64 192 l 1
 64 256 l 1
 64 320 l 1
 64 384 l 1
 64 448 l 1
 64 512 l 1
 64 576 l 1
 64 640 l 1
 64 704 l 1
 64 768 l 1
 64 832 l 1
 64 896 l 1
 128 896 l 1
 128 832 l 1
 128 768 l 1
 128 704 l 1
 128 640 l 1
 192 640 l 1
 192 576 l 1
 192 512 l 1
 128 512 l 1
 128 448 l 1
 128 384 l 1
 128 320 l 1
 128 256 l 1
 128 192 l 1
 128 128 l 1
 128 64 l 1
 128 0 l 1
 64 0 l 1
320 0 m 1
 320 64 l 1
 320 128 l 1
 320 192 l 1
 320 256 l 1
 256 256 l 1
 256 320 l 1
 256 384 l 1
 320 384 l 1
 320 448 l 1
 320 512 l 1
 320 576 l 1
 320 640 l 1
 320 704 l 1
 320 768 l 1
 320 832 l 1
 320 896 l 1
 384 896 l 1
 384 832 l 1
 384 768 l 1
 384 704 l 1
 384 640 l 1
 384 576 l 1
 384 512 l 1
 384 448 l 1
 384 384 l 1
 384 320 l 1
 384 256 l 1
 384 192 l 1
 384 128 l 1
 384 64 l 1
 384 0 l 1
 320 0 l 1
192 384 m 1
 192 448 l 1
 192 512 l 1
 256 512 l 1
 256 448 l 1
 256 384 l 1
 192 384 l 1
EndSplineSet
EndChar

StartChar: O
Encoding: 79 79 29
Width: 448
VWidth: 0
Flags: HW
LayerCount: 2
Back
Fore
SplineSet
128 0 m 1
 128 64 l 1
 128 128 l 1
 192 128 l 1
 256 128 l 1
 320 128 l 1
 320 64 l 1
 320 0 l 1
 256 0 l 1
 192 0 l 1
 128 0 l 1
64 128 m 1
 64 192 l 1
 64 256 l 1
 64 320 l 1
 64 384 l 1
 64 448 l 1
 64 512 l 1
 64 576 l 1
 64 640 l 1
 64 704 l 1
 64 768 l 1
 128 768 l 1
 128 704 l 1
 128 640 l 1
 128 576 l 1
 128 512 l 1
 128 448 l 1
 128 384 l 1
 128 320 l 1
 128 256 l 1
 128 192 l 1
 128 128 l 1
 64 128 l 1
320 128 m 1
 320 192 l 1
 320 256 l 1
 320 320 l 1
 320 384 l 1
 320 448 l 1
 320 512 l 1
 320 576 l 1
 320 640 l 1
 320 704 l 1
 320 768 l 1
 384 768 l 1
 384 704 l 1
 384 640 l 1
 384 576 l 1
 384 512 l 1
 384 448 l 1
 384 384 l 1
 384 320 l 1
 384 256 l 1
 384 192 l 1
 384 128 l 1
 320 128 l 1
128 768 m 1
 128 832 l 1
 128 896 l 1
 192 896 l 1
 256 896 l 1
 320 896 l 1
 320 832 l 1
 320 768 l 1
 256 768 l 1
 192 768 l 1
 128 768 l 1
EndSplineSet
EndChar

StartChar: P
Encoding: 80 80 30
Width: 448
VWidth: 0
Flags: HW
LayerCount: 2
Back
Fore
SplineSet
64 0 m 1
 64 64 l 1
 64 128 l 1
 64 192 l 1
 64 256 l 1
 64 320 l 1
 64 384 l 1
 64 448 l 1
 64 512 l 1
 64 576 l 1
 64 640 l 1
 64 704 l 1
 64 768 l 1
 64 832 l 1
 64 896 l 1
 128 896 l 1
 192 896 l 1
 256 896 l 1
 320 896 l 1
 320 832 l 1
 320 768 l 1
 256 768 l 1
 192 768 l 1
 128 768 l 1
 128 704 l 1
 128 640 l 1
 128 576 l 1
 128 512 l 1
 192 512 l 1
 256 512 l 1
 320 512 l 1
 320 448 l 1
 320 384 l 1
 256 384 l 1
 192 384 l 1
 128 384 l 1
 128 320 l 1
 128 256 l 1
 128 192 l 1
 128 128 l 1
 128 64 l 1
 128 0 l 1
 64 0 l 1
320 512 m 1
 320 576 l 1
 320 640 l 1
 320 704 l 1
 320 768 l 1
 384 768 l 1
 384 704 l 1
 384 640 l 1
 384 576 l 1
 384 512 l 1
 320 512 l 1
EndSplineSet
EndChar

StartChar: Q
Encoding: 81 81 31
Width: 448
VWidth: 0
Flags: HW
LayerCount: 2
Back
Fore
SplineSet
128 0 m 1
 128 64 l 1
 128 128 l 1
 192 128 l 1
 256 128 l 1
 256 64 l 1
 256 0 l 1
 192 0 l 1
 128 0 l 1
320 0 m 1
 320 64 l 1
 320 128 l 1
 384 128 l 1
 384 64 l 1
 384 0 l 1
 320 0 l 1
64 128 m 1
 64 192 l 1
 64 256 l 1
 64 320 l 1
 64 384 l 1
 64 448 l 1
 64 512 l 1
 64 576 l 1
 64 640 l 1
 64 704 l 1
 64 768 l 1
 128 768 l 1
 128 704 l 1
 128 640 l 1
 128 576 l 1
 128 512 l 1
 128 448 l 1
 128 384 l 1
 128 320 l 1
 128 256 l 1
 128 192 l 1
 128 128 l 1
 64 128 l 1
256 128 m 1
 256 192 l 1
 256 256 l 1
 320 256 l 1
 320 192 l 1
 320 128 l 1
 256 128 l 1
192 256 m 1
 192 320 l 1
 192 384 l 1
 256 384 l 1
 256 320 l 1
 256 256 l 1
 192 256 l 1
320 256 m 1
 320 320 l 1
 320 384 l 1
 320 448 l 1
 320 512 l 1
 320 576 l 1
 320 640 l 1
 320 704 l 1
 320 768 l 1
 384 768 l 1
 384 704 l 1
 384 640 l 1
 384 576 l 1
 384 512 l 1
 384 448 l 1
 384 384 l 1
 384 320 l 1
 384 256 l 1
 320 256 l 1
128 768 m 1
 128 832 l 1
 128 896 l 1
 192 896 l 1
 256 896 l 1
 320 896 l 1
 320 832 l 1
 320 768 l 1
 256 768 l 1
 192 768 l 1
 128 768 l 1
EndSplineSet
EndChar

StartChar: R
Encoding: 82 82 32
Width: 448
VWidth: 0
Flags: HW
LayerCount: 2
Back
Fore
SplineSet
64 0 m 1
 64 64 l 1
 64 128 l 1
 64 192 l 1
 64 256 l 1
 64 320 l 1
 64 384 l 1
 64 448 l 1
 64 512 l 1
 64 576 l 1
 64 640 l 1
 64 704 l 1
 64 768 l 1
 64 832 l 1
 64 896 l 1
 128 896 l 1
 192 896 l 1
 256 896 l 1
 320 896 l 1
 320 832 l 1
 320 768 l 1
 256 768 l 1
 192 768 l 1
 128 768 l 1
 128 704 l 1
 128 640 l 1
 128 576 l 1
 128 512 l 1
 192 512 l 1
 256 512 l 1
 320 512 l 1
 320 448 l 1
 320 384 l 1
 256 384 l 1
 256 320 l 1
 256 256 l 1
 192 256 l 1
 192 320 l 1
 192 384 l 1
 128 384 l 1
 128 320 l 1
 128 256 l 1
 128 192 l 1
 128 128 l 1
 128 64 l 1
 128 0 l 1
 64 0 l 1
320 0 m 1
 320 64 l 1
 320 128 l 1
 384 128 l 1
 384 64 l 1
 384 0 l 1
 320 0 l 1
256 128 m 1
 256 192 l 1
 256 256 l 1
 320 256 l 1
 320 192 l 1
 320 128 l 1
 256 128 l 1
320 512 m 1
 320 576 l 1
 320 640 l 1
 320 704 l 1
 320 768 l 1
 384 768 l 1
 384 704 l 1
 384 640 l 1
 384 576 l 1
 384 512 l 1
 320 512 l 1
EndSplineSet
EndChar

StartChar: S
Encoding: 83 83 33
Width: 448
VWidth: 0
Flags: HW
LayerCount: 2
Back
Fore
SplineSet
128 0 m 1
 128 64 l 1
 128 128 l 1
 192 128 l 1
 256 128 l 1
 320 128 l 1
 320 64 l 1
 320 0 l 1
 256 0 l 1
 192 0 l 1
 128 0 l 1
64 128 m 1
 64 192 l 1
 64 256 l 1
 128 256 l 1
 128 192 l 1
 128 128 l 1
 64 128 l 1
320 128 m 1
 320 192 l 1
 320 256 l 1
 320 320 l 1
 320 384 l 1
 384 384 l 1
 384 320 l 1
 384 256 l 1
 384 192 l 1
 384 128 l 1
 320 128 l 1
128 384 m 1
 128 448 l 1
 128 512 l 1
 192 512 l 1
 256 512 l 1
 320 512 l 1
 320 448 l 1
 320 384 l 1
 256 384 l 1
 192 384 l 1
 128 384 l 1
64 512 m 1
 64 576 l 1
 64 640 l 1
 64 704 l 1
 64 768 l 1
 128 768 l 1
 128 704 l 1
 128 640 l 1
 128 576 l 1
 128 512 l 1
 64 512 l 1
320 640 m 1
 320 704 l 1
 320 768 l 1
 384 768 l 1
 384 704 l 1
 384 640 l 1
 320 640 l 1
128 768 m 1
 128 832 l 1
 128 896 l 1
 192 896 l 1
 256 896 l 1
 320 896 l 1
 320 832 l 1
 320 768 l 1
 256 768 l 1
 192 768 l 1
 128 768 l 1
EndSplineSet
EndChar

StartChar: T
Encoding: 84 84 34
Width: 448
VWidth: 0
Flags: HW
LayerCount: 2
Back
Fore
SplineSet
192 0 m 1
 192 64 l 1
 192 128 l 1
 192 192 l 1
 192 256 l 1
 192 320 l 1
 192 384 l 1
 192 448 l 1
 192 512 l 1
 192 576 l 1
 192 640 l 1
 192 704 l 1
 192 768 l 1
 128 768 l 1
 64 768 l 1
 64 832 l 1
 64 896 l 1
 128 896 l 1
 192 896 l 1
 256 896 l 1
 320 896 l 1
 384 896 l 1
 384 832 l 1
 384 768 l 1
 320 768 l 1
 256 768 l 1
 256 704 l 1
 256 640 l 1
 256 576 l 1
 256 512 l 1
 256 448 l 1
 256 384 l 1
 256 320 l 1
 256 256 l 1
 256 192 l 1
 256 128 l 1
 256 64 l 1
 256 0 l 1
 192 0 l 1
EndSplineSet
EndChar

StartChar: U
Encoding: 85 85 35
Width: 448
VWidth: 0
Flags: HW
LayerCount: 2
Back
Fore
SplineSet
128 0 m 1
 128 64 l 1
 128 128 l 1
 192 128 l 1
 256 128 l 1
 320 128 l 1
 320 64 l 1
 320 0 l 1
 256 0 l 1
 192 0 l 1
 128 0 l 1
64 128 m 1
 64 192 l 1
 64 256 l 1
 64 320 l 1
 64 384 l 1
 64 448 l 1
 64 512 l 1
 64 576 l 1
 64 640 l 1
 64 704 l 1
 64 768 l 1
 64 832 l 1
 64 896 l 1
 128 896 l 1
 128 832 l 1
 128 768 l 1
 128 704 l 1
 128 640 l 1
 128 576 l 1
 128 512 l 1
 128 448 l 1
 128 384 l 1
 128 320 l 1
 128 256 l 1
 128 192 l 1
 128 128 l 1
 64 128 l 1
320 128 m 1
 320 192 l 1
 320 256 l 1
 320 320 l 1
 320 384 l 1
 320 448 l 1
 320 512 l 1
 320 576 l 1
 320 640 l 1
 320 704 l 1
 320 768 l 1
 320 832 l 1
 320 896 l 1
 384 896 l 1
 384 832 l 1
 384 768 l 1
 384 704 l 1
 384 640 l 1
 384 576 l 1
 384 512 l 1
 384 448 l 1
 384 384 l 1
 384 320 l 1
 384 256 l 1
 384 192 l 1
 384 128 l 1
 320 128 l 1
EndSplineSet
EndChar

StartChar: V
Encoding: 86 86 36
Width: 448
VWidth: 0
Flags: HW
LayerCount: 2
Back
Fore
SplineSet
192 0 m 1
 192 64 l 1
 192 128 l 1
 256 128 l 1
 256 64 l 1
 256 0 l 1
 192 0 l 1
128 128 m 1
 128 192 l 1
 128 256 l 1
 192 256 l 1
 192 192 l 1
 192 128 l 1
 128 128 l 1
256 128 m 1
 256 192 l 1
 256 256 l 1
 320 256 l 1
 320 192 l 1
 320 128 l 1
 256 128 l 1
64 256 m 1
 64 320 l 1
 64 384 l 1
 64 448 l 1
 64 512 l 1
 64 576 l 1
 64 640 l 1
 64 704 l 1
 64 768 l 1
 64 832 l 1
 64 896 l 1
 128 896 l 1
 128 832 l 1
 128 768 l 1
 128 704 l 1
 128 640 l 1
 128 576 l 1
 128 512 l 1
 128 448 l 1
 128 384 l 1
 128 320 l 1
 128 256 l 1
 64 256 l 1
320 256 m 1
 320 320 l 1
 320 384 l 1
 320 448 l 1
 320 512 l 1
 320 576 l 1
 320 640 l 1
 320 704 l 1
 320 768 l 1
 320 832 l 1
 320 896 l 1
 384 896 l 1
 384 832 l 1
 384 768 l 1
 384 704 l 1
 384 640 l 1
 384 576 l 1
 384 512 l 1
 384 448 l 1
 384 384 l 1
 384 320 l 1
 384 256 l 1
 320 256 l 1
EndSplineSet
EndChar

StartChar: W
Encoding: 87 87 37
Width: 448
VWidth: 0
Flags: HW
LayerCount: 2
Back
Fore
SplineSet
64 0 m 1
 64 64 l 1
 64 128 l 1
 64 192 l 1
 64 256 l 1
 64 320 l 1
 64 384 l 1
 64 448 l 1
 64 512 l 1
 64 576 l 1
 64 640 l 1
 64 704 l 1
 64 768 l 1
 64 832 l 1
 64 896 l 1
 128 896 l 1
 128 832 l 1
 128 768 l 1
 128 704 l 1
 128 640 l 1
 128 576 l 1
 128 512 l 1
 128 448 l 1
 128 384 l 1
 128 320 l 1
 128 256 l 1
 192 256 l 1
 192 192 l 1
 192 128 l 1
 128 128 l 1
 128 64 l 1
 128 0 l 1
 64 0 l 1
320 0 m 1
 320 64 l 1
 320 128 l 1
 256 128 l 1
 256 192 l 1
 256 256 l 1
 320 256 l 1
 320 320 l 1
 320 384 l 1
 320 448 l 1
 320 512 l 1
 320 576 l 1
 320 640 l 1
 320 704 l 1
 320 768 l 1
 320 832 l 1
 320 896 l 1
 384 896 l 1
 384 832 l 1
 384 768 l 1
 384 704 l 1
 384 640 l 1
 384 576 l 1
 384 512 l 1
 384 448 l 1
 384 384 l 1
 384 320 l 1
 384 256 l 1
 384 192 l 1
 384 128 l 1
 384 64 l 1
 384 0 l 1
 320 0 l 1
192 256 m 1
 192 320 l 1
 192 384 l 1
 192 448 l 1
 192 512 l 1
 256 512 l 1
 256 448 l 1
 256 384 l 1
 256 320 l 1
 256 256 l 1
 192 256 l 1
EndSplineSet
EndChar

StartChar: X
Encoding: 88 88 38
Width: 448
VWidth: 0
Flags: HW
LayerCount: 2
Back
Fore
SplineSet
64 0 m 1
 64 64 l 1
 64 128 l 1
 64 192 l 1
 64 256 l 1
 128 256 l 1
 128 192 l 1
 128 128 l 1
 128 64 l 1
 128 0 l 1
 64 0 l 1
320 0 m 1
 320 64 l 1
 320 128 l 1
 320 192 l 1
 320 256 l 1
 384 256 l 1
 384 192 l 1
 384 128 l 1
 384 64 l 1
 384 0 l 1
 320 0 l 1
128 256 m 1
 128 320 l 1
 128 384 l 1
 192 384 l 1
 192 320 l 1
 192 256 l 1
 128 256 l 1
256 256 m 1
 256 320 l 1
 256 384 l 1
 320 384 l 1
 320 320 l 1
 320 256 l 1
 256 256 l 1
192 384 m 1
 192 448 l 1
 192 512 l 1
 256 512 l 1
 256 448 l 1
 256 384 l 1
 192 384 l 1
128 512 m 1
 128 576 l 1
 128 640 l 1
 192 640 l 1
 192 576 l 1
 192 512 l 1
 128 512 l 1
256 512 m 1
 256 576 l 1
 256 640 l 1
 320 640 l 1
 320 576 l 1
 320 512 l 1
 256 512 l 1
64 640 m 1
 64 704 l 1
 64 768 l 1
 64 832 l 1
 64 896 l 1
 128 896 l 1
 128 832 l 1
 128 768 l 1
 128 704 l 1
 128 640 l 1
 64 640 l 1
320 640 m 1
 320 704 l 1
 320 768 l 1
 320 832 l 1
 320 896 l 1
 384 896 l 1
 384 832 l 1
 384 768 l 1
 384 704 l 1
 384 640 l 1
 320 640 l 1
EndSplineSet
EndChar

StartChar: Y
Encoding: 89 89 39
Width: 448
VWidth: 0
Flags: HW
LayerCount: 2
Back
Fore
SplineSet
192 0 m 1
 192 64 l 1
 192 128 l 1
 192 192 l 1
 192 256 l 1
 192 320 l 1
 192 384 l 1
 192 448 l 1
 192 512 l 1
 256 512 l 1
 256 448 l 1
 256 384 l 1
 256 320 l 1
 256 256 l 1
 256 192 l 1
 256 128 l 1
 256 64 l 1
 256 0 l 1
 192 0 l 1
128 512 m 1
 128 576 l 1
 128 640 l 1
 192 640 l 1
 192 576 l 1
 192 512 l 1
 128 512 l 1
256 512 m 1
 256 576 l 1
 256 640 l 1
 320 640 l 1
 320 576 l 1
 320 512 l 1
 256 512 l 1
64 640 m 1
 64 704 l 1
 64 768 l 1
 64 832 l 1
 64 896 l 1
 128 896 l 1
 128 832 l 1
 128 768 l 1
 128 704 l 1
 128 640 l 1
 64 640 l 1
320 640 m 1
 320 704 l 1
 320 768 l 1
 320 832 l 1
 320 896 l 1
 384 896 l 1
 384 832 l 1
 384 768 l 1
 384 704 l 1
 384 640 l 1
 320 640 l 1
EndSplineSet
EndChar

StartChar: Z
Encoding: 90 90 40
Width: 448
VWidth: 0
Flags: HW
LayerCount: 2
Back
Fore
SplineSet
64 0 m 1
 64 64 l 1
 64 128 l 1
 64 192 l 1
 64 256 l 1
 128 256 l 1
 128 192 l 1
 128 128 l 1
 192 128 l 1
 256 128 l 1
 320 128 l 1
 384 128 l 1
 384 64 l 1
 384 0 l 1
 320 0 l 1
 256 0 l 1
 192 0 l 1
 128 0 l 1
 64 0 l 1
128 256 m 1
 128 320 l 1
 128 384 l 1
 192 384 l 1
 192 320 l 1
 192 256 l 1
 128 256 l 1
192 384 m 1
 192 448 l 1
 192 512 l 1
 256 512 l 1
 256 448 l 1
 256 384 l 1
 192 384 l 1
256 512 m 1
 256 576 l 1
 256 640 l 1
 320 640 l 1
 320 576 l 1
 320 512 l 1
 256 512 l 1
320 640 m 1
 320 704 l 1
 320 768 l 1
 256 768 l 1
 192 768 l 1
 128 768 l 1
 64 768 l 1
 64 832 l 1
 64 896 l 1
 128 896 l 1
 192 896 l 1
 256 896 l 1
 320 896 l 1
 384 896 l 1
 384 832 l 1
 384 768 l 1
 384 704 l 1
 384 640 l 1
 320 640 l 1
EndSplineSet
EndChar

